<svg xmlns="http://www.w3.org/2000/svg" xmlns:xlink="http://www.w3.org/1999/xlink" width="408" zoomAndPan="magnify" viewBox="0 0 306 305.999988" height="408" preserveAspectRatio="xMidYMid meet" version="1.0"><defs><clipPath id="bfaf716de9"><path d="M 113.621094 69 L 165 69 L 165 154.585938 L 113.621094 154.585938 Z M 113.621094 69 " clip-rule="nonzero"/></clipPath><clipPath id="f8d61c22a4"><path d="M 161 69 L 212.621094 69 L 212.621094 154.585938 L 161 154.585938 Z M 161 69 " clip-rule="nonzero"/></clipPath><clipPath id="3b030f5ef6"><path d="M 113.621094 42.835938 L 212.621094 42.835938 L 212.621094 99 L 113.621094 99 Z M 113.621094 42.835938 " clip-rule="nonzero"/></clipPath><clipPath id="3d6f6af59d"><path d="M 65.675781 96 L 117 96 L 117 181 L 65.675781 181 Z M 65.675781 96 " clip-rule="nonzero"/></clipPath><clipPath id="a749faa856"><path d="M 113 96 L 164.675781 96 L 164.675781 181 L 113 181 Z M 113 96 " clip-rule="nonzero"/></clipPath><clipPath id="8353b28a0f"><path d="M 65.675781 69.386719 L 164.675781 69.386719 L 164.675781 126 L 65.675781 126 Z M 65.675781 69.386719 " clip-rule="nonzero"/></clipPath><clipPath id="b3b5cf6888"><path d="M 65.675781 151 L 117 151 L 117 236.851562 L 65.675781 236.851562 Z M 65.675781 151 " clip-rule="nonzero"/></clipPath><clipPath id="e0b82b9fd4"><path d="M 113 151 L 164.675781 151 L 164.675781 236.851562 L 113 236.851562 Z M 113 151 " clip-rule="nonzero"/></clipPath><clipPath id="fc5066153d"><path d="M 65.675781 125.101562 L 164.675781 125.101562 L 164.675781 181 L 65.675781 181 Z M 65.675781 125.101562 " clip-rule="nonzero"/></clipPath><clipPath id="a017290ebc"><path d="M 113.621094 178 L 165 178 L 165 263 L 113.621094 263 Z M 113.621094 178 " clip-rule="nonzero"/></clipPath><clipPath id="62e702e321"><path d="M 161 178 L 212.621094 178 L 212.621094 263 L 161 263 Z M 161 178 " clip-rule="nonzero"/></clipPath><clipPath id="832c382ca2"><path d="M 113.621094 151.269531 L 212.621094 151.269531 L 212.621094 207 L 113.621094 207 Z M 113.621094 151.269531 " clip-rule="nonzero"/></clipPath><clipPath id="c56df1d054"><path d="M 0 0 L 305.25 0 L 305.25 305.25 L 0 305.25 Z M 0 0 " clip-rule="nonzero"/></clipPath><clipPath id="25da79b4b7"><path d="M 152.765625 0 C 68.394531 0 0 68.394531 0 152.765625 C 0 237.136719 68.394531 305.53125 152.765625 305.53125 C 237.136719 305.53125 305.53125 237.136719 305.53125 152.765625 C 305.53125 68.394531 237.136719 0 152.765625 0 Z M 152.765625 0 " clip-rule="nonzero"/></clipPath></defs><g clip-path="url(#bfaf716de9)"><path fill="#ffffff" d="M 116.210938 125.824219 L 161.789062 150.757812 L 161.789062 98.011719 L 116.210938 73.078125 Z M 163.078125 154.222656 C 162.867188 154.222656 162.652344 154.171875 162.460938 154.066406 L 114.300781 127.71875 C 113.886719 127.492188 113.628906 127.058594 113.628906 126.585938 L 113.628906 70.902344 C 113.628906 70.445312 113.871094 70.023438 114.261719 69.792969 C 114.652344 69.558594 115.140625 69.550781 115.539062 69.769531 L 163.695312 96.117188 C 164.109375 96.34375 164.367188 96.777344 164.367188 97.246094 L 164.367188 152.933594 C 164.367188 153.390625 164.128906 153.8125 163.734375 154.042969 C 163.535156 154.164062 163.304688 154.222656 163.078125 154.222656 " fill-opacity="1" fill-rule="nonzero"/></g><g clip-path="url(#f8d61c22a4)"><path fill="#ffffff" d="M 164.367188 98.011719 L 164.367188 150.757812 L 209.945312 125.824219 L 209.945312 73.078125 Z M 163.078125 154.222656 C 162.851562 154.222656 162.621094 154.164062 162.421875 154.042969 C 162.027344 153.8125 161.789062 153.390625 161.789062 152.933594 L 161.789062 97.246094 C 161.789062 96.777344 162.046875 96.34375 162.460938 96.117188 L 210.617188 69.769531 C 211.015625 69.550781 211.503906 69.558594 211.894531 69.792969 C 212.285156 70.023438 212.527344 70.445312 212.527344 70.902344 L 212.527344 126.585938 C 212.527344 127.058594 212.269531 127.492188 211.855469 127.71875 L 163.695312 154.066406 C 163.503906 154.171875 163.289062 154.222656 163.078125 154.222656 " fill-opacity="1" fill-rule="nonzero"/></g><g clip-path="url(#3b030f5ef6)"><path fill="#ffffff" d="M 117.59375 70.894531 L 163.074219 95.777344 L 208.5625 70.722656 L 163.078125 45.667969 Z M 163.078125 98.539062 C 162.863281 98.539062 162.652344 98.484375 162.460938 98.378906 L 114.300781 72.03125 C 113.886719 71.804688 113.632812 71.375 113.628906 70.90625 C 113.628906 70.433594 113.882812 70 114.292969 69.773438 L 162.453125 43.070312 C 162.839844 42.851562 163.3125 42.851562 163.699219 43.066406 L 211.859375 69.59375 C 212.269531 69.820312 212.527344 70.253906 212.527344 70.722656 C 212.527344 71.191406 212.269531 71.625 211.859375 71.851562 L 163.699219 98.378906 C 163.507812 98.484375 163.292969 98.539062 163.078125 98.539062 " fill-opacity="1" fill-rule="nonzero"/></g><g clip-path="url(#3d6f6af59d)"><path fill="#ffffff" d="M 68.261719 152.371094 L 113.839844 177.308594 L 113.839844 124.5625 L 68.261719 99.625 Z M 115.128906 180.773438 C 114.917969 180.773438 114.703125 180.722656 114.511719 180.613281 L 66.351562 154.269531 C 65.9375 154.042969 65.683594 153.609375 65.683594 153.136719 L 65.683594 97.449219 C 65.683594 96.996094 65.921875 96.574219 66.3125 96.34375 C 66.707031 96.109375 67.191406 96.101562 67.589844 96.320312 L 115.75 122.667969 C 116.164062 122.890625 116.417969 123.328125 116.417969 123.796875 L 116.417969 179.484375 C 116.417969 179.9375 116.179688 180.359375 115.789062 180.59375 C 115.585938 180.714844 115.355469 180.773438 115.128906 180.773438 " fill-opacity="1" fill-rule="nonzero"/></g><g clip-path="url(#a749faa856)"><path fill="#ffffff" d="M 116.417969 124.5625 L 116.417969 177.308594 L 162 152.371094 L 162 99.625 Z M 115.128906 180.773438 C 114.902344 180.773438 114.675781 180.714844 114.472656 180.59375 C 114.082031 180.359375 113.839844 179.9375 113.839844 179.484375 L 113.839844 123.796875 C 113.839844 123.328125 114.097656 122.890625 114.511719 122.667969 L 162.667969 96.320312 C 163.070312 96.101562 163.554688 96.109375 163.945312 96.34375 C 164.339844 96.574219 164.578125 96.996094 164.578125 97.449219 L 164.578125 153.136719 C 164.578125 153.609375 164.320312 154.042969 163.90625 154.269531 L 115.75 180.613281 C 115.554688 180.722656 115.34375 180.773438 115.128906 180.773438 " fill-opacity="1" fill-rule="nonzero"/></g><g clip-path="url(#8353b28a0f)"><path fill="#ffffff" d="M 69.644531 97.445312 L 115.128906 122.328125 L 160.613281 97.273438 L 115.132812 72.21875 Z M 115.128906 125.089844 C 114.917969 125.089844 114.703125 125.035156 114.511719 124.929688 L 66.351562 98.582031 C 65.941406 98.355469 65.683594 97.925781 65.683594 97.453125 C 65.679688 96.984375 65.933594 96.550781 66.347656 96.324219 L 114.503906 69.617188 C 114.894531 69.402344 115.363281 69.402344 115.753906 69.617188 L 163.910156 96.144531 C 164.324219 96.371094 164.578125 96.800781 164.578125 97.273438 C 164.578125 97.742188 164.324219 98.175781 163.910156 98.402344 L 115.753906 124.925781 C 115.558594 125.035156 115.34375 125.089844 115.128906 125.089844 " fill-opacity="1" fill-rule="nonzero"/></g><g clip-path="url(#b3b5cf6888)"><path fill="#ffffff" d="M 68.261719 208.089844 L 113.839844 233.023438 L 113.839844 180.277344 L 68.261719 155.34375 Z M 115.128906 236.488281 C 114.917969 236.488281 114.703125 236.4375 114.511719 236.332031 L 66.351562 209.984375 C 65.9375 209.757812 65.683594 209.324219 65.683594 208.851562 L 65.683594 153.167969 C 65.683594 152.710938 65.921875 152.289062 66.3125 152.058594 C 66.707031 151.824219 67.191406 151.816406 67.589844 152.035156 L 115.75 178.382812 C 116.164062 178.609375 116.417969 179.042969 116.417969 179.515625 L 116.417969 235.199219 C 116.417969 235.65625 116.179688 236.078125 115.789062 236.308594 C 115.585938 236.429688 115.355469 236.488281 115.128906 236.488281 " fill-opacity="1" fill-rule="nonzero"/></g><g clip-path="url(#e0b82b9fd4)"><path fill="#ffffff" d="M 116.417969 180.277344 L 116.417969 233.023438 L 162 208.089844 L 162 155.34375 Z M 115.128906 236.488281 C 114.902344 236.488281 114.675781 236.429688 114.472656 236.308594 C 114.082031 236.078125 113.839844 235.65625 113.839844 235.199219 L 113.839844 179.515625 C 113.839844 179.042969 114.097656 178.609375 114.511719 178.382812 L 162.667969 152.035156 C 163.070312 151.816406 163.554688 151.824219 163.945312 152.058594 C 164.339844 152.289062 164.578125 152.710938 164.578125 153.167969 L 164.578125 208.851562 C 164.578125 209.324219 164.320312 209.757812 163.90625 209.984375 L 115.75 236.332031 C 115.554688 236.4375 115.34375 236.488281 115.128906 236.488281 " fill-opacity="1" fill-rule="nonzero"/></g><g clip-path="url(#fc5066153d)"><path fill="#ffffff" d="M 69.644531 153.160156 L 115.128906 178.042969 L 160.613281 152.988281 L 115.132812 127.9375 Z M 115.128906 180.804688 C 114.917969 180.804688 114.703125 180.75 114.511719 180.644531 L 66.351562 154.300781 C 65.941406 154.074219 65.683594 153.640625 65.683594 153.171875 C 65.679688 152.699219 65.933594 152.265625 66.347656 152.039062 L 114.503906 125.335938 C 114.894531 125.121094 115.363281 125.121094 115.753906 125.332031 L 163.910156 151.859375 C 164.324219 152.085938 164.578125 152.519531 164.578125 152.988281 C 164.578125 153.457031 164.324219 153.890625 163.910156 154.117188 L 115.753906 180.644531 C 115.558594 180.75 115.34375 180.804688 115.128906 180.804688 " fill-opacity="1" fill-rule="nonzero"/></g><g clip-path="url(#a017290ebc)"><path fill="#ffffff" d="M 116.210938 234.253906 L 161.789062 259.191406 L 161.789062 206.445312 L 116.210938 181.507812 Z M 163.078125 262.65625 C 162.867188 262.65625 162.652344 262.601562 162.460938 262.496094 L 114.300781 236.148438 C 113.886719 235.925781 113.628906 235.492188 113.628906 235.019531 L 113.628906 179.332031 C 113.628906 178.878906 113.871094 178.457031 114.261719 178.222656 C 114.652344 177.992188 115.140625 177.984375 115.539062 178.203125 L 163.695312 204.546875 C 164.109375 204.773438 164.367188 205.207031 164.367188 205.679688 L 164.367188 261.367188 C 164.367188 261.820312 164.128906 262.242188 163.734375 262.476562 C 163.535156 262.59375 163.304688 262.65625 163.078125 262.65625 " fill-opacity="1" fill-rule="nonzero"/></g><g clip-path="url(#62e702e321)"><path fill="#ffffff" d="M 164.367188 206.445312 L 164.367188 259.191406 L 209.945312 234.253906 L 209.945312 181.507812 Z M 163.078125 262.65625 C 162.851562 262.65625 162.621094 262.59375 162.421875 262.476562 C 162.027344 262.242188 161.789062 261.820312 161.789062 261.367188 L 161.789062 205.679688 C 161.789062 205.207031 162.046875 204.773438 162.460938 204.546875 L 210.617188 178.203125 C 211.015625 177.984375 211.503906 177.992188 211.894531 178.222656 C 212.285156 178.457031 212.527344 178.878906 212.527344 179.332031 L 212.527344 235.019531 C 212.527344 235.492188 212.269531 235.925781 211.855469 236.148438 L 163.695312 262.496094 C 163.503906 262.601562 163.289062 262.65625 163.078125 262.65625 " fill-opacity="1" fill-rule="nonzero"/></g><g clip-path="url(#832c382ca2)"><path fill="#ffffff" d="M 117.59375 179.324219 L 163.074219 204.207031 L 208.5625 179.152344 L 163.078125 154.101562 Z M 163.078125 206.96875 C 162.863281 206.96875 162.652344 206.917969 162.460938 206.8125 L 114.300781 180.464844 C 113.886719 180.238281 113.632812 179.808594 113.628906 179.335938 C 113.628906 178.867188 113.882812 178.433594 114.292969 178.203125 L 162.453125 151.5 C 162.839844 151.285156 163.3125 151.285156 163.699219 151.5 L 211.859375 178.023438 C 212.269531 178.25 212.527344 178.683594 212.527344 179.152344 C 212.527344 179.625 212.269531 180.058594 211.859375 180.285156 L 163.699219 206.808594 C 163.507812 206.914062 163.292969 206.96875 163.078125 206.96875 " fill-opacity="1" fill-rule="nonzero"/></g><g clip-path="url(#c56df1d054)"><g clip-path="url(#25da79b4b7)"><path stroke-linecap="butt" transform="matrix(0.75, 0, 0, 0.75, 0.000006, 0)" fill="none" stroke-linejoin="miter" d="M 203.687508 0 C 91.192708 0 -0.000008 91.192716 -0.000008 203.687516 C -0.000008 316.182317 91.192708 407.375033 203.687508 407.375033 C 316.182309 407.375033 407.375025 316.182317 407.375025 203.687516 C 407.375025 91.192716 316.182309 0 203.687508 0 Z M 203.687508 0 " stroke="#ffffff" stroke-width="16" stroke-opacity="1" stroke-miterlimit="4"/></g></g></svg>