<svg xmlns="http://www.w3.org/2000/svg" xmlns:xlink="http://www.w3.org/1999/xlink" width="500" zoomAndPan="magnify" viewBox="0 0 375 374.999991" height="500" preserveAspectRatio="xMidYMid meet" version="1.0"><defs><clipPath id="b578d750c7"><path d="M 34.730469 37.5 L 339.980469 37.5 L 339.980469 342.75 L 34.730469 342.75 Z M 34.730469 37.5 " clip-rule="nonzero"/></clipPath><clipPath id="4fe3bddd2d"><path d="M 187.496094 37.5 C 103.125 37.5 34.730469 105.894531 34.730469 190.265625 C 34.730469 274.636719 103.125 343.03125 187.496094 343.03125 C 271.867188 343.03125 340.261719 274.636719 340.261719 190.265625 C 340.261719 105.894531 271.867188 37.5 187.496094 37.5 Z M 187.496094 37.5 " clip-rule="nonzero"/></clipPath><clipPath id="3a94144c53"><path d="M 153.160156 111 L 204 111 L 204 196.074219 L 153.160156 196.074219 Z M 153.160156 111 " clip-rule="nonzero"/></clipPath><clipPath id="5d74cab890"><path d="M 201 111 L 252.160156 111 L 252.160156 196.074219 L 201 196.074219 Z M 201 111 " clip-rule="nonzero"/></clipPath><clipPath id="0aedba5632"><path d="M 153.160156 84.324219 L 252.160156 84.324219 L 252.160156 141 L 153.160156 141 Z M 153.160156 84.324219 " clip-rule="nonzero"/></clipPath><clipPath id="ef82373671"><path d="M 105.210938 137 L 157 137 L 157 222.625 L 105.210938 222.625 Z M 105.210938 137 " clip-rule="nonzero"/></clipPath><clipPath id="fb1e50bdd6"><path d="M 153 137 L 204.210938 137 L 204.210938 222.625 L 153 222.625 Z M 153 137 " clip-rule="nonzero"/></clipPath><clipPath id="4f0812cdf7"><path d="M 105.210938 110.875 L 204.210938 110.875 L 204.210938 167 L 105.210938 167 Z M 105.210938 110.875 " clip-rule="nonzero"/></clipPath><clipPath id="4bd9594f28"><path d="M 105.210938 193 L 157 193 L 157 278.339844 L 105.210938 278.339844 Z M 105.210938 193 " clip-rule="nonzero"/></clipPath><clipPath id="e4241c747a"><path d="M 153 193 L 204.210938 193 L 204.210938 278.339844 L 153 278.339844 Z M 153 193 " clip-rule="nonzero"/></clipPath><clipPath id="66b65f59a2"><path d="M 105.210938 166.589844 L 204.210938 166.589844 L 204.210938 223 L 105.210938 223 Z M 105.210938 166.589844 " clip-rule="nonzero"/></clipPath><clipPath id="688e5d6b24"><path d="M 153.160156 219 L 204 219 L 204 304.507812 L 153.160156 304.507812 Z M 153.160156 219 " clip-rule="nonzero"/></clipPath><clipPath id="3b866cd52c"><path d="M 201 219 L 252.160156 219 L 252.160156 304.507812 L 201 304.507812 Z M 201 219 " clip-rule="nonzero"/></clipPath><clipPath id="be9a804b19"><path d="M 153.160156 192.757812 L 252.160156 192.757812 L 252.160156 249 L 153.160156 249 Z M 153.160156 192.757812 " clip-rule="nonzero"/></clipPath></defs><rect x="-37.5" width="450" fill="#ffffff" y="-37.499999" height="449.999989" fill-opacity="1"/><rect x="-37.5" width="450" fill="#ffffff" y="-37.499999" height="449.999989" fill-opacity="1"/><g clip-path="url(#b578d750c7)"><g clip-path="url(#4fe3bddd2d)"><path stroke-linecap="butt" transform="matrix(0.75, 0, 0, 0.75, 34.731015, 37.499998)" fill="none" stroke-linejoin="miter" d="M 203.686784 0.00000328333 C 91.191985 0.00000328333 -0.000728892 91.192718 -0.000728892 203.687517 C -0.000728892 316.182316 91.191985 407.37503 203.686784 407.37503 C 316.181584 407.37503 407.374298 316.182316 407.374298 203.687517 C 407.374298 91.192718 316.181584 0.00000328333 203.686784 0.00000328333 Z M 203.686784 0.00000328333 " stroke="#000000" stroke-width="16" stroke-opacity="1" stroke-miterlimit="4"/></g></g><g clip-path="url(#3a94144c53)"><path fill="#000000" d="M 155.75 167.554688 L 201.378906 192.5625 L 201.378906 139.660156 L 155.75 114.652344 Z M 202.667969 196.039062 C 202.457031 196.039062 202.242188 195.988281 202.050781 195.878906 L 153.839844 169.457031 C 153.425781 169.230469 153.167969 168.792969 153.167969 168.320312 L 153.167969 112.472656 C 153.167969 112.015625 153.40625 111.589844 153.800781 111.359375 C 154.191406 111.125 154.679688 111.117188 155.078125 111.335938 L 203.289062 137.761719 C 203.703125 137.988281 203.960938 138.421875 203.960938 138.894531 L 203.960938 194.746094 C 203.960938 195.203125 203.71875 195.625 203.328125 195.859375 C 203.125 195.980469 202.894531 196.039062 202.667969 196.039062 " fill-opacity="1" fill-rule="nonzero"/></g><g clip-path="url(#5d74cab890)"><path fill="#000000" d="M 203.960938 139.660156 L 203.960938 192.5625 L 249.585938 167.554688 L 249.585938 114.652344 Z M 202.667969 196.039062 C 202.441406 196.039062 202.210938 195.980469 202.011719 195.859375 C 201.617188 195.625 201.378906 195.203125 201.378906 194.746094 L 201.378906 138.894531 C 201.378906 138.421875 201.636719 137.988281 202.050781 137.761719 L 250.257812 111.335938 C 250.660156 111.117188 251.144531 111.125 251.535156 111.359375 C 251.929688 111.589844 252.167969 112.015625 252.167969 112.472656 L 252.167969 168.320312 C 252.167969 168.792969 251.914062 169.230469 251.5 169.457031 L 203.289062 195.878906 C 203.09375 195.988281 202.882812 196.039062 202.667969 196.039062 " fill-opacity="1" fill-rule="nonzero"/></g><g clip-path="url(#0aedba5632)"><path fill="#000000" d="M 157.136719 112.464844 L 202.667969 137.417969 L 248.203125 112.292969 L 202.671875 87.164062 Z M 202.667969 140.1875 C 202.457031 140.1875 202.242188 140.136719 202.050781 140.03125 L 153.839844 113.605469 C 153.425781 113.378906 153.167969 112.945312 153.167969 112.476562 C 153.167969 112.003906 153.421875 111.570312 153.832031 111.339844 L 202.042969 84.558594 C 202.429688 84.339844 202.902344 84.339844 203.292969 84.554688 L 251.5 111.160156 C 251.914062 111.386719 252.167969 111.820312 252.167969 112.292969 C 252.167969 112.761719 251.914062 113.199219 251.5 113.425781 L 203.292969 140.027344 C 203.097656 140.136719 202.882812 140.1875 202.667969 140.1875 " fill-opacity="1" fill-rule="nonzero"/></g><g clip-path="url(#ef82373671)"><path fill="#000000" d="M 107.800781 194.105469 L 153.429688 219.113281 L 153.429688 166.210938 L 107.800781 141.203125 Z M 154.71875 222.589844 C 154.507812 222.589844 154.292969 222.535156 154.101562 222.429688 L 105.890625 196.007812 C 105.476562 195.78125 105.21875 195.34375 105.21875 194.871094 L 105.21875 139.019531 C 105.21875 138.566406 105.460938 138.140625 105.851562 137.910156 C 106.242188 137.675781 106.730469 137.667969 107.128906 137.886719 L 155.339844 164.3125 C 155.753906 164.539062 156.011719 164.972656 156.011719 165.445312 L 156.011719 221.296875 C 156.011719 221.753906 155.769531 222.175781 155.378906 222.410156 C 155.175781 222.53125 154.949219 222.589844 154.71875 222.589844 " fill-opacity="1" fill-rule="nonzero"/></g><g clip-path="url(#fb1e50bdd6)"><path fill="#000000" d="M 156.011719 166.210938 L 156.011719 219.113281 L 201.640625 194.105469 L 201.640625 141.203125 Z M 154.71875 222.589844 C 154.492188 222.589844 154.265625 222.53125 154.0625 222.410156 C 153.671875 222.175781 153.429688 221.753906 153.429688 221.296875 L 153.429688 165.445312 C 153.429688 164.972656 153.6875 164.539062 154.101562 164.3125 L 202.3125 137.886719 C 202.710938 137.667969 203.195312 137.675781 203.589844 137.910156 C 203.980469 138.140625 204.222656 138.566406 204.222656 139.019531 L 204.222656 194.871094 C 204.222656 195.34375 203.964844 195.78125 203.550781 196.007812 L 155.339844 222.429688 C 155.148438 222.535156 154.933594 222.589844 154.71875 222.589844 " fill-opacity="1" fill-rule="nonzero"/></g><g clip-path="url(#4f0812cdf7)"><path fill="#000000" d="M 109.1875 139.015625 L 154.71875 163.96875 L 200.253906 138.84375 L 154.722656 113.714844 Z M 154.71875 166.738281 C 154.507812 166.738281 154.292969 166.6875 154.101562 166.582031 L 105.890625 140.15625 C 105.476562 139.929688 105.222656 139.496094 105.21875 139.027344 C 105.21875 138.554688 105.472656 138.117188 105.882812 137.890625 L 154.09375 111.105469 C 154.484375 110.890625 154.953125 110.890625 155.34375 111.105469 L 203.554688 137.710938 C 203.964844 137.9375 204.222656 138.371094 204.222656 138.84375 C 204.222656 139.3125 203.964844 139.746094 203.554688 139.976562 L 155.34375 166.578125 C 155.148438 166.6875 154.933594 166.738281 154.71875 166.738281 " fill-opacity="1" fill-rule="nonzero"/></g><g clip-path="url(#4bd9594f28)"><path fill="#000000" d="M 107.800781 249.820312 L 153.429688 274.828125 L 153.429688 221.929688 L 107.800781 196.917969 Z M 154.71875 278.304688 C 154.507812 278.304688 154.292969 278.253906 154.101562 278.148438 L 105.890625 251.722656 C 105.476562 251.496094 105.21875 251.058594 105.21875 250.585938 L 105.21875 194.738281 C 105.21875 194.28125 105.460938 193.859375 105.851562 193.625 C 106.242188 193.390625 106.730469 193.382812 107.128906 193.601562 L 155.339844 220.027344 C 155.753906 220.253906 156.011719 220.6875 156.011719 221.160156 L 156.011719 277.011719 C 156.011719 277.46875 155.769531 277.890625 155.378906 278.125 C 155.175781 278.246094 154.949219 278.304688 154.71875 278.304688 " fill-opacity="1" fill-rule="nonzero"/></g><g clip-path="url(#e4241c747a)"><path fill="#000000" d="M 156.011719 221.929688 L 156.011719 274.828125 L 201.640625 249.820312 L 201.640625 196.917969 Z M 154.71875 278.304688 C 154.492188 278.304688 154.265625 278.246094 154.0625 278.125 C 153.671875 277.890625 153.429688 277.46875 153.429688 277.011719 L 153.429688 221.160156 C 153.429688 220.6875 153.6875 220.253906 154.101562 220.027344 L 202.3125 193.601562 C 202.710938 193.382812 203.195312 193.390625 203.589844 193.625 C 203.980469 193.859375 204.222656 194.28125 204.222656 194.738281 L 204.222656 250.585938 C 204.222656 251.058594 203.964844 251.496094 203.550781 251.722656 L 155.339844 278.148438 C 155.148438 278.253906 154.933594 278.304688 154.71875 278.304688 " fill-opacity="1" fill-rule="nonzero"/></g><g clip-path="url(#66b65f59a2)"><path fill="#000000" d="M 109.1875 194.730469 L 154.71875 219.6875 L 200.253906 194.558594 L 154.722656 169.433594 Z M 154.71875 222.457031 C 154.507812 222.457031 154.292969 222.402344 154.101562 222.296875 L 105.890625 195.871094 C 105.476562 195.644531 105.222656 195.210938 105.21875 194.742188 C 105.21875 194.269531 105.472656 193.835938 105.882812 193.605469 L 154.09375 166.824219 C 154.484375 166.609375 154.953125 166.609375 155.34375 166.820312 L 203.554688 193.425781 C 203.964844 193.652344 204.222656 194.085938 204.222656 194.558594 C 204.222656 195.027344 203.964844 195.464844 203.554688 195.691406 L 155.34375 222.296875 C 155.148438 222.402344 154.933594 222.457031 154.71875 222.457031 " fill-opacity="1" fill-rule="nonzero"/></g><g clip-path="url(#688e5d6b24)"><path fill="#000000" d="M 155.75 275.988281 L 201.378906 300.996094 L 201.378906 248.09375 L 155.75 223.085938 Z M 202.667969 304.472656 C 202.457031 304.472656 202.242188 304.417969 202.050781 304.3125 L 153.839844 277.886719 C 153.425781 277.660156 153.167969 277.226562 153.167969 276.753906 L 153.167969 220.902344 C 153.167969 220.445312 153.40625 220.023438 153.800781 219.789062 C 154.191406 219.558594 154.679688 219.550781 155.078125 219.769531 L 203.289062 246.191406 C 203.703125 246.417969 203.960938 246.855469 203.960938 247.328125 L 203.960938 303.175781 C 203.960938 303.632812 203.71875 304.058594 203.328125 304.289062 C 203.125 304.410156 202.894531 304.472656 202.667969 304.472656 " fill-opacity="1" fill-rule="nonzero"/></g><g clip-path="url(#3b866cd52c)"><path fill="#000000" d="M 203.960938 248.09375 L 203.960938 300.996094 L 249.585938 275.988281 L 249.585938 223.085938 Z M 202.667969 304.472656 C 202.441406 304.472656 202.210938 304.410156 202.011719 304.289062 C 201.617188 304.058594 201.378906 303.632812 201.378906 303.175781 L 201.378906 247.328125 C 201.378906 246.855469 201.636719 246.417969 202.050781 246.191406 L 250.257812 219.769531 C 250.660156 219.550781 251.144531 219.558594 251.535156 219.789062 C 251.929688 220.023438 252.167969 220.445312 252.167969 220.902344 L 252.167969 276.753906 C 252.167969 277.226562 251.914062 277.660156 251.5 277.886719 L 203.289062 304.3125 C 203.09375 304.417969 202.882812 304.472656 202.667969 304.472656 " fill-opacity="1" fill-rule="nonzero"/></g><g clip-path="url(#be9a804b19)"><path fill="#000000" d="M 157.136719 220.894531 L 202.667969 245.851562 L 248.203125 220.722656 L 202.671875 195.597656 Z M 202.667969 248.621094 C 202.457031 248.621094 202.242188 248.566406 202.050781 248.460938 L 153.839844 222.039062 C 153.425781 221.8125 153.167969 221.378906 153.167969 220.90625 C 153.167969 220.4375 153.421875 220 153.832031 219.773438 L 202.042969 192.988281 C 202.429688 192.773438 202.902344 192.773438 203.292969 192.988281 L 251.5 219.589844 C 251.914062 219.816406 252.167969 220.253906 252.167969 220.722656 C 252.167969 221.195312 251.914062 221.628906 251.5 221.855469 L 203.292969 248.460938 C 203.097656 248.566406 202.882812 248.621094 202.667969 248.621094 " fill-opacity="1" fill-rule="nonzero"/></g></svg>