<svg xmlns="http://www.w3.org/2000/svg" xmlns:xlink="http://www.w3.org/1999/xlink" width="408" zoomAndPan="magnify" viewBox="0 0 306 305.999988" height="408" preserveAspectRatio="xMidYMid meet" version="1.0"><defs><clipPath id="b2e157f29e"><path d="M 0 0 L 305.539062 0 L 305.539062 305.539062 L 0 305.539062 Z M 0 0 " clip-rule="nonzero"/></clipPath><clipPath id="83c9281c58"><path d="M 152.769531 0 C 68.398438 0 0 68.398438 0 152.769531 C 0 237.140625 68.398438 305.539062 152.769531 305.539062 C 237.140625 305.539062 305.539062 237.140625 305.539062 152.769531 C 305.539062 68.398438 237.140625 0 152.769531 0 Z M 152.769531 0 " clip-rule="nonzero"/></clipPath><clipPath id="b9332490f0"><path d="M 0 0 L 305.539062 0 L 305.539062 305.539062 L 0 305.539062 Z M 0 0 " clip-rule="nonzero"/></clipPath><clipPath id="fa44bf1f5a"><path d="M 152.769531 0 C 68.398438 0 0 68.398438 0 152.769531 C 0 237.140625 68.398438 305.539062 152.769531 305.539062 C 237.140625 305.539062 305.539062 237.140625 305.539062 152.769531 C 305.539062 68.398438 237.140625 0 152.769531 0 Z M 152.769531 0 " clip-rule="nonzero"/></clipPath><clipPath id="8835347d72"><rect x="0" width="306" y="0" height="306"/></clipPath><clipPath id="96aef96514"><path d="M 0 0 L 305.25 0 L 305.25 305.25 L 0 305.25 Z M 0 0 " clip-rule="nonzero"/></clipPath><clipPath id="ce203e8adb"><path d="M 152.765625 0 C 68.394531 0 0 68.394531 0 152.765625 C 0 237.136719 68.394531 305.53125 152.765625 305.53125 C 237.136719 305.53125 305.53125 237.136719 305.53125 152.765625 C 305.53125 68.394531 237.136719 0 152.765625 0 Z M 152.765625 0 " clip-rule="nonzero"/></clipPath><clipPath id="e30b892c1d"><path d="M 113.621094 68 L 165 68 L 165 153.085938 L 113.621094 153.085938 Z M 113.621094 68 " clip-rule="nonzero"/></clipPath><clipPath id="68cbc48ac9"><path d="M 161 68 L 212.621094 68 L 212.621094 153.085938 L 161 153.085938 Z M 161 68 " clip-rule="nonzero"/></clipPath><clipPath id="73fdbb3263"><path d="M 113.621094 41.335938 L 212.621094 41.335938 L 212.621094 98 L 113.621094 98 Z M 113.621094 41.335938 " clip-rule="nonzero"/></clipPath><clipPath id="216be15629"><path d="M 65.675781 94 L 117 94 L 117 179.636719 L 65.675781 179.636719 Z M 65.675781 94 " clip-rule="nonzero"/></clipPath><clipPath id="9e1fa23dc5"><path d="M 113 94 L 164.675781 94 L 164.675781 179.636719 L 113 179.636719 Z M 113 94 " clip-rule="nonzero"/></clipPath><clipPath id="fa560420be"><path d="M 65.675781 67.886719 L 164.675781 67.886719 L 164.675781 124 L 65.675781 124 Z M 65.675781 67.886719 " clip-rule="nonzero"/></clipPath><clipPath id="8d6e51a708"><path d="M 65.675781 150 L 117 150 L 117 235.351562 L 65.675781 235.351562 Z M 65.675781 150 " clip-rule="nonzero"/></clipPath><clipPath id="f183f40281"><path d="M 113 150 L 164.675781 150 L 164.675781 235.351562 L 113 235.351562 Z M 113 150 " clip-rule="nonzero"/></clipPath><clipPath id="12ceccc84b"><path d="M 65.675781 123.601562 L 164.675781 123.601562 L 164.675781 180 L 65.675781 180 Z M 65.675781 123.601562 " clip-rule="nonzero"/></clipPath><clipPath id="cbf02cdbf2"><path d="M 113.621094 176 L 165 176 L 165 261.519531 L 113.621094 261.519531 Z M 113.621094 176 " clip-rule="nonzero"/></clipPath><clipPath id="4198ed8416"><path d="M 161 176 L 212.621094 176 L 212.621094 261.519531 L 161 261.519531 Z M 161 176 " clip-rule="nonzero"/></clipPath><clipPath id="c91d8e12cd"><path d="M 113.621094 149.769531 L 212.621094 149.769531 L 212.621094 206 L 113.621094 206 Z M 113.621094 149.769531 " clip-rule="nonzero"/></clipPath></defs><g clip-path="url(#b2e157f29e)"><g clip-path="url(#83c9281c58)"><g><g clip-path="url(#8835347d72)"><g clip-path="url(#b9332490f0)"><g clip-path="url(#fa44bf1f5a)"><path fill="#ffffff" d="M 0 0 L 305.539062 0 L 305.539062 305.539062 L 0 305.539062 Z M 0 0 " fill-opacity="1" fill-rule="nonzero"/></g></g></g></g></g></g><g clip-path="url(#96aef96514)"><g clip-path="url(#ce203e8adb)"><path stroke-linecap="butt" transform="matrix(0.75, 0, 0, 0.75, 0.000006, 0)" fill="none" stroke-linejoin="miter" d="M 203.687508 0 C 91.192708 0 -0.000008 91.192716 -0.000008 203.687516 C -0.000008 316.182317 91.192708 407.375033 203.687508 407.375033 C 316.182309 407.375033 407.375025 316.182317 407.375025 203.687516 C 407.375025 91.192716 316.182309 0 203.687508 0 Z M 203.687508 0 " stroke="#000000" stroke-width="16" stroke-opacity="1" stroke-miterlimit="4"/></g></g><g clip-path="url(#e30b892c1d)"><path fill="#000000" d="M 116.210938 124.566406 L 161.839844 149.574219 L 161.839844 96.675781 L 116.210938 71.664062 Z M 163.128906 153.050781 C 162.917969 153.050781 162.703125 153 162.511719 152.890625 L 114.300781 126.46875 C 113.886719 126.242188 113.628906 125.804688 113.628906 125.332031 L 113.628906 69.484375 C 113.628906 69.027344 113.871094 68.605469 114.261719 68.371094 C 114.652344 68.136719 115.140625 68.128906 115.539062 68.347656 L 163.75 94.773438 C 164.164062 95 164.421875 95.433594 164.421875 95.90625 L 164.421875 151.757812 C 164.421875 152.214844 164.179688 152.636719 163.789062 152.871094 C 163.585938 152.992188 163.359375 153.050781 163.128906 153.050781 " fill-opacity="1" fill-rule="nonzero"/></g><g clip-path="url(#68cbc48ac9)"><path fill="#000000" d="M 164.421875 96.675781 L 164.421875 149.574219 L 210.050781 124.566406 L 210.050781 71.664062 Z M 163.128906 153.050781 C 162.902344 153.050781 162.675781 152.992188 162.472656 152.871094 C 162.082031 152.636719 161.839844 152.214844 161.839844 151.757812 L 161.839844 95.90625 C 161.839844 95.433594 162.097656 95 162.511719 94.773438 L 210.722656 68.347656 C 211.121094 68.128906 211.605469 68.136719 212 68.371094 C 212.390625 68.605469 212.632812 69.027344 212.632812 69.484375 L 212.632812 125.332031 C 212.632812 125.804688 212.375 126.242188 211.960938 126.46875 L 163.75 152.890625 C 163.558594 153 163.34375 153.050781 163.128906 153.050781 " fill-opacity="1" fill-rule="nonzero"/></g><g clip-path="url(#73fdbb3263)"><path fill="#000000" d="M 117.597656 69.476562 L 163.128906 94.433594 L 208.664062 69.304688 L 163.132812 44.179688 Z M 163.128906 97.203125 C 162.917969 97.203125 162.703125 97.148438 162.511719 97.042969 L 114.300781 70.617188 C 113.886719 70.390625 113.632812 69.957031 113.628906 69.488281 C 113.628906 69.015625 113.882812 68.582031 114.292969 68.351562 L 162.503906 41.570312 C 162.894531 41.351562 163.363281 41.351562 163.753906 41.566406 L 211.964844 68.171875 C 212.375 68.398438 212.632812 68.832031 212.632812 69.304688 C 212.632812 69.773438 212.375 70.210938 211.964844 70.4375 L 163.753906 97.039062 C 163.558594 97.148438 163.34375 97.203125 163.128906 97.203125 " fill-opacity="1" fill-rule="nonzero"/></g><g clip-path="url(#216be15629)"><path fill="#000000" d="M 68.265625 151.117188 L 113.890625 176.125 L 113.890625 123.226562 L 68.265625 98.214844 Z M 115.183594 179.601562 C 114.96875 179.601562 114.757812 179.550781 114.5625 179.441406 L 66.351562 153.019531 C 65.9375 152.792969 65.683594 152.355469 65.683594 151.882812 L 65.683594 96.035156 C 65.683594 95.578125 65.921875 95.152344 66.3125 94.921875 C 66.707031 94.6875 67.191406 94.679688 67.59375 94.898438 L 115.800781 121.324219 C 116.214844 121.550781 116.472656 121.984375 116.472656 122.457031 L 116.472656 178.308594 C 116.472656 178.765625 116.234375 179.1875 115.839844 179.421875 C 115.636719 179.542969 115.410156 179.601562 115.183594 179.601562 " fill-opacity="1" fill-rule="nonzero"/></g><g clip-path="url(#9e1fa23dc5)"><path fill="#000000" d="M 116.472656 123.226562 L 116.472656 176.125 L 162.101562 151.117188 L 162.101562 98.214844 Z M 115.183594 179.601562 C 114.953125 179.601562 114.726562 179.542969 114.523438 179.421875 C 114.132812 179.1875 113.890625 178.765625 113.890625 178.308594 L 113.890625 122.457031 C 113.890625 121.984375 114.148438 121.550781 114.5625 121.324219 L 162.773438 94.898438 C 163.171875 94.679688 163.660156 94.6875 164.050781 94.921875 C 164.441406 95.152344 164.683594 95.578125 164.683594 96.035156 L 164.683594 151.882812 C 164.683594 152.355469 164.425781 152.792969 164.011719 153.019531 L 115.800781 179.441406 C 115.609375 179.550781 115.394531 179.601562 115.183594 179.601562 " fill-opacity="1" fill-rule="nonzero"/></g><g clip-path="url(#fa560420be)"><path fill="#000000" d="M 69.648438 96.027344 L 115.179688 120.984375 L 160.714844 95.855469 L 115.183594 70.726562 Z M 115.183594 123.75 C 114.96875 123.75 114.757812 123.699219 114.5625 123.59375 L 66.351562 97.167969 C 65.941406 96.941406 65.683594 96.507812 65.683594 96.039062 C 65.679688 95.566406 65.933594 95.132812 66.347656 94.902344 L 114.554688 68.121094 C 114.945312 67.902344 115.417969 67.902344 115.804688 68.117188 L 164.015625 94.722656 C 164.429688 94.949219 164.683594 95.382812 164.683594 95.855469 C 164.683594 96.324219 164.429688 96.761719 164.015625 96.988281 L 115.804688 123.589844 C 115.613281 123.699219 115.398438 123.75 115.183594 123.75 " fill-opacity="1" fill-rule="nonzero"/></g><g clip-path="url(#8d6e51a708)"><path fill="#000000" d="M 68.265625 206.832031 L 113.890625 231.84375 L 113.890625 178.941406 L 68.265625 153.933594 Z M 115.183594 235.316406 C 114.96875 235.316406 114.757812 235.265625 114.5625 235.160156 L 66.351562 208.734375 C 65.9375 208.507812 65.683594 208.074219 65.683594 207.601562 L 65.683594 151.75 C 65.683594 151.292969 65.921875 150.871094 66.3125 150.636719 C 66.707031 150.402344 67.191406 150.394531 67.59375 150.613281 L 115.800781 177.039062 C 116.214844 177.265625 116.472656 177.703125 116.472656 178.175781 L 116.472656 234.023438 C 116.472656 234.480469 116.234375 234.902344 115.839844 235.136719 C 115.636719 235.257812 115.410156 235.316406 115.183594 235.316406 " fill-opacity="1" fill-rule="nonzero"/></g><g clip-path="url(#f183f40281)"><path fill="#000000" d="M 116.472656 178.941406 L 116.472656 231.84375 L 162.101562 206.832031 L 162.101562 153.933594 Z M 115.183594 235.316406 C 114.953125 235.316406 114.726562 235.257812 114.523438 235.136719 C 114.132812 234.902344 113.890625 234.480469 113.890625 234.023438 L 113.890625 178.175781 C 113.890625 177.703125 114.148438 177.265625 114.5625 177.039062 L 162.773438 150.613281 C 163.171875 150.394531 163.660156 150.402344 164.050781 150.636719 C 164.441406 150.871094 164.683594 151.292969 164.683594 151.75 L 164.683594 207.601562 C 164.683594 208.074219 164.425781 208.507812 164.011719 208.734375 L 115.800781 235.160156 C 115.609375 235.265625 115.394531 235.316406 115.183594 235.316406 " fill-opacity="1" fill-rule="nonzero"/></g><g clip-path="url(#12ceccc84b)"><path fill="#000000" d="M 69.648438 151.742188 L 115.179688 176.699219 L 160.714844 151.570312 L 115.183594 126.445312 Z M 115.183594 179.46875 C 114.96875 179.46875 114.757812 179.414062 114.5625 179.308594 L 66.351562 152.886719 C 65.941406 152.660156 65.683594 152.226562 65.683594 151.753906 C 65.679688 151.28125 65.933594 150.847656 66.347656 150.617188 L 114.554688 123.835938 C 114.945312 123.621094 115.417969 123.621094 115.804688 123.832031 L 164.015625 150.4375 C 164.429688 150.664062 164.683594 151.097656 164.683594 151.570312 C 164.683594 152.042969 164.429688 152.476562 164.015625 152.703125 L 115.804688 179.308594 C 115.613281 179.414062 115.398438 179.46875 115.183594 179.46875 " fill-opacity="1" fill-rule="nonzero"/></g><g clip-path="url(#cbf02cdbf2)"><path fill="#000000" d="M 116.210938 233 L 161.839844 258.007812 L 161.839844 205.105469 L 116.210938 180.097656 Z M 163.128906 261.484375 C 162.917969 261.484375 162.703125 261.429688 162.511719 261.324219 L 114.300781 234.898438 C 113.886719 234.671875 113.628906 234.238281 113.628906 233.765625 L 113.628906 177.914062 C 113.628906 177.457031 113.871094 177.035156 114.261719 176.804688 C 114.652344 176.570312 115.140625 176.5625 115.539062 176.78125 L 163.75 203.207031 C 164.164062 203.433594 164.421875 203.867188 164.421875 204.339844 L 164.421875 260.191406 C 164.421875 260.648438 164.179688 261.070312 163.789062 261.300781 C 163.585938 261.421875 163.359375 261.484375 163.128906 261.484375 " fill-opacity="1" fill-rule="nonzero"/></g><g clip-path="url(#4198ed8416)"><path fill="#000000" d="M 164.421875 205.105469 L 164.421875 258.007812 L 210.050781 233 L 210.050781 180.097656 Z M 163.128906 261.484375 C 162.902344 261.484375 162.675781 261.421875 162.472656 261.300781 C 162.082031 261.070312 161.839844 260.648438 161.839844 260.191406 L 161.839844 204.339844 C 161.839844 203.867188 162.097656 203.433594 162.511719 203.207031 L 210.722656 176.78125 C 211.121094 176.5625 211.605469 176.570312 212 176.804688 C 212.390625 177.035156 212.632812 177.457031 212.632812 177.914062 L 212.632812 233.765625 C 212.632812 234.238281 212.375 234.671875 211.960938 234.898438 L 163.75 261.324219 C 163.558594 261.429688 163.34375 261.484375 163.128906 261.484375 " fill-opacity="1" fill-rule="nonzero"/></g><g clip-path="url(#c91d8e12cd)"><path fill="#000000" d="M 117.597656 177.90625 L 163.128906 202.863281 L 208.664062 177.738281 L 163.132812 152.609375 Z M 163.128906 205.632812 C 162.917969 205.632812 162.703125 205.582031 162.511719 205.472656 L 114.300781 179.050781 C 113.886719 178.824219 113.632812 178.390625 113.628906 177.917969 C 113.628906 177.449219 113.882812 177.011719 114.292969 176.785156 L 162.503906 150 C 162.894531 149.785156 163.363281 149.785156 163.753906 150 L 211.964844 176.601562 C 212.375 176.832031 212.632812 177.265625 212.632812 177.738281 C 212.632812 178.207031 212.375 178.640625 211.964844 178.871094 L 163.753906 205.472656 C 163.558594 205.578125 163.34375 205.632812 163.128906 205.632812 " fill-opacity="1" fill-rule="nonzero"/></g></svg>